Format : Matroska
Format version : Version 4 / Version 2
File size : 3.95 GiB
Duration : 1h 44mn
Overall bit rate : 5 394 Kbps
Encoded date : UTC 2010-02-22 21:41:31
Writing application : mkvmerge v5.9.0 ('On The Loose') built on Dec 9 2012 15:37:01
Writing library : libebml v1.3.0 + libmatroska v1.4.0

Video
ID : 1
Format : AVC
Format/Info : Advanced Video Codec
Format profile : High@L4.1
Format settings, CABAC : Yes
Format settings, ReFrames : 9 frames
Muxing mode : Header stripping
Codec ID : V_MPEG4/ISO/AVC
Duration : 1h 44mn
Bit rate : 4 200 Kbps
Width : 1 280 pixels
Height : 694 pixels
Display aspect ratio : 1.85:1
Frame rate mode : Constant
Frame rate : 23.976 fps
Color space : YUV
Chroma subsampling : 4:2:0
Bit depth : 8 bits
Scan type : Progressive
Bits/(Pixel*Frame) : 0.197
Stream size : 2.94 GiB (74%)
Writing library : x264 core 129 r2230 1cffe9f
Encoding settings : cabac=1 / ref=9 / deblock=1:-3:-3 / analyse=0x3:0x113 / me=umh / subme=10 / psy=1 / psy_rd=1.00:0.00 / mixed_ref=1 / me_range=32 / chroma_me=1 / trellis=2 / 8x8dct=1 / cqm=0 / deadzone=21,11 / fast_pskip=1 / chroma_qp_offset=-2 / threads=16 / lookahead_threads=2 / sliced_threads=0 / nr=0 / decimate=1 / interlaced=0 / bluray_compat=0 / constrained_intra=0 / bframes=10 / b_pyramid=2 / b_adapt=2 / b_bias=0 / direct=3 / weightb=1 / open_gop=0 / weightp=2 / keyint=240 / keyint_min=23 / scenecut=40 / intra_refresh=0 / rc_lookahead=120 / rc=abr / mbtree=1 / bitrate=4200 / ratetol=1.0 / qcomp=0.60 / qpmin=0 / qpmax=69 / qpstep=4 / ip_ratio=1.40 / aq=1:1.00
Language : English
Default : Yes
Forced : No

Audio #1
ID : 2
Format : AC-3
Format/Info : Audio Coding 3
Mode extension : CM (complete main)
Format settings, Endianness : Big
Muxing mode : Header stripping
Codec ID : A_AC3
Duration : 1h 44mn
Bit rate mode : Constant
Bit rate : 640 Kbps
Channel(s) : 6 channels
Channel positions : Front: L C R, Side: L R, LFE
Sampling rate : 48.0 KHz
Bit depth : 16 bits
Compression mode : Lossy
Stream size : 480 MiB (12%)
Title : Español Latino
Language : Spanish
Default : Yes
Forced : No

Audio #2
ID : 3
Format : AC-3
Format/Info : Audio Coding 3
Mode extension : CM (complete main)
Format settings, Endianness : Big
Muxing mode : Header stripping
Codec ID : A_AC3
Duration : 1h 44mn
Bit rate mode : Constant
Bit rate : 640 Kbps
Channel(s) : 6 channels
Channel positions : Front: L C R, Side: L R, LFE
Sampling rate : 48.0 KHz
Bit depth : 16 bits
Compression mode : Lossy
Stream size : 480 MiB (12%)
Title : Ingles
Language : English
Default : No
Forced : No

Text #1
ID : 4
Format : UTF-8
Codec ID : S_TEXT/UTF8
Codec ID/Info : UTF-8 Plain Text
Language : English
Default : No
Forced : No

Text #2
ID : 5
Format : UTF-8
Codec ID : S_TEXT/UTF8
Codec ID/Info : UTF-8 Plain Text
Language : English
Default : No
Forced : No

Text #3
ID : 6
Format : VobSub
Muxing mode : zlib
Codec ID : S_VOBSUB
Codec ID/Info : The same subtitle format used on DVDs
Language : Chinese
Default : No
Forced : No

Text #4
ID : 7
Format : VobSub
Muxing mode : zlib
Codec ID : S_VOBSUB
Codec ID/Info : The same subtitle format used on DVDs
Language : Chinese
Default : No
Forced : No

Text #5
ID : 8
Format : VobSub
Muxing mode : zlib
Codec ID : S_VOBSUB
Codec ID/Info : The same subtitle format used on DVDs
Language : French
Default : No
Forced : No

Text #6
ID : 9
Format : VobSub
Muxing mode : zlib
Codec ID : S_VOBSUB
Codec ID/Info : The same subtitle format used on DVDs
Language : Korean
Default : No
Forced : No

Text #7
ID : 10
Format : VobSub
Muxing mode : zlib
Codec ID : S_VOBSUB
Codec ID/Info : The same subtitle format used on DVDs
Language : Spanish
Default : No
Forced : No

Text #8
ID : 11
Format : VobSub
Muxing mode : zlib
Codec ID : S_VOBSUB
Codec ID/Info : The same subtitle format used on DVDs
Language : Thai
Default : No
Forced : No

Menu
00:00:00.000 : en:00:00:00.000
00:08:41.896 : en:00:08:41.896
00:12:53.606 : en:00:12:53.606
00:18:21.934 : en:00:18:21.934
00:27:42.578 : en:00:27:42.578
00:34:16.888 : en:00:34:16.888
00:42:40.558 : en:00:42:40.558
00:49:34.847 : en:00:49:34.847
00:55:49.596 : en:00:55:49.596
01:02:05.972 : en:01:02:05.972
01:06:42.373 : en:01:06:42.373
01:11:09.557 : en:01:11:09.557
01:17:27.184 : en:01:17:27.184
01:22:00.040 : en:01:22:00.040
01:33:03.328 : en:01:33:03.328
01:38:50.466 : en:01:38:50.466 